<svg width="16" height="16" viewBox="0 0 16 16" fill="none" xmlns="http://www.w3.org/2000/svg">
<path d="M4.85948 3.27174C6.94924 3.09008 9.05082 3.09008 11.1406 3.27174L12.1474 3.35926C12.8176 3.41753 13.3917 3.81731 13.6891 4.38916C13.7272 4.46231 13.6987 4.55089 13.6285 4.59429L9.45123 7.18024C8.55532 7.73486 7.42564 7.74649 6.5185 7.21045L2.31328 4.72555C2.24534 4.6854 2.21416 4.60276 2.24477 4.53003C2.51688 3.88365 3.12863 3.4222 3.85265 3.35926L4.85948 3.27174Z" fill="#666666"/>
<path d="M2.24135 5.84459C2.13738 5.78315 2.00471 5.84926 1.99259 5.96943C1.82343 7.64651 1.86437 9.33948 2.11541 11.0089C2.24775 11.889 2.96602 12.5637 3.85265 12.6407L4.85948 12.7283C6.94923 12.9099 9.05082 12.9099 11.1406 12.7283L12.1474 12.6407C13.034 12.5637 13.7523 11.889 13.8846 11.0089C14.143 9.29083 14.1788 7.54783 13.9921 5.82285C13.979 5.70184 13.8441 5.63694 13.7406 5.70101L9.97759 8.03051C8.76547 8.78087 7.23708 8.79661 6.00977 8.07138L2.24135 5.84459Z" fill="#666666"/>
</svg>
