<svg width="48" height="48" viewBox="0 0 48 48" fill="none" xmlns="http://www.w3.org/2000/svg">
<path fill-rule="evenodd" clip-rule="evenodd" d="M24 46C36.1503 46 46 36.1503 46 24C46 11.8497 36.1503 2 24 2C11.8497 2 2 11.8497 2 24C2 36.1503 11.8497 46 24 46ZM21.2397 30.908C21.8877 31.292 22.5957 31.484 23.3637 31.484C23.8197 31.484 24.3837 31.436 25.0557 31.34C25.7277 31.22 26.3637 31.004 26.9637 30.692L26.4957 28.856C26.2797 28.904 26.0757 28.94 25.8837 28.964C25.7157 28.988 25.5597 29 25.4157 29C24.9117 29 24.5397 28.904 24.2997 28.712C24.0837 28.496 23.9877 28.232 24.0117 27.92C24.0357 27.464 24.3117 26.984 24.8397 26.48C25.3677 25.976 26.0157 25.448 26.7837 24.896C27.5757 24.32 28.3557 23.684 29.1237 22.988C29.9157 22.292 30.5877 21.536 31.1397 20.72C31.6917 19.88 31.9917 18.956 32.0397 17.948C32.0877 16.988 31.8957 16.076 31.4637 15.212C31.0317 14.324 30.2637 13.604 29.1597 13.052C28.0797 12.5 26.5917 12.224 24.6957 12.224C23.2557 12.224 21.9477 12.488 20.7717 13.016C19.6197 13.544 18.6957 14.216 17.9997 15.032C17.3037 15.848 16.9317 16.688 16.8837 17.552C16.8597 18.272 17.0157 18.872 17.3517 19.352C17.7117 19.808 18.2637 20.06 19.0077 20.108C19.5837 20.132 20.0517 20.024 20.4117 19.784C20.7957 19.544 21.0837 19.244 21.2757 18.884C21.4917 18.5 21.6117 18.152 21.6357 17.84C21.6837 17.576 21.6597 17.252 21.5637 16.868C21.4677 16.46 21.2997 16.136 21.0597 15.896C21.2997 15.632 21.6717 15.38 22.1757 15.14C22.7037 14.876 23.2677 14.744 23.8677 14.744C25.0677 14.744 25.8717 15.116 26.2797 15.86C26.6877 16.604 26.8677 17.54 26.8197 18.668C26.7477 20.036 26.3997 21.152 25.7757 22.016C25.1757 22.88 24.4317 23.732 23.5437 24.572C22.7037 25.364 22.0557 26.024 21.5997 26.552C21.1437 27.056 20.8317 27.488 20.6637 27.848C20.4957 28.208 20.3997 28.592 20.3757 29C20.3277 29.888 20.6157 30.524 21.2397 30.908ZM21.5997 37.748C22.0797 38.3 22.6677 38.576 23.3637 38.576C24.0597 38.576 24.6837 38.3 25.2357 37.748C25.8117 37.196 26.1117 36.536 26.1357 35.768C26.1837 35 25.9677 34.34 25.4877 33.788C25.0317 33.236 24.4317 32.96 23.6877 32.96C22.9917 32.96 22.3677 33.236 21.8157 33.788C21.2637 34.34 20.9637 35 20.9157 35.768C20.8917 36.536 21.1197 37.196 21.5997 37.748Z" fill="white"/>
</svg>
