<svg width="16" height="16" viewBox="0 0 16 16" fill="none" xmlns="http://www.w3.org/2000/svg">
<path d="M5.83333 6.66667C5.83333 5.47005 6.80338 4.5 8 4.5C9.19662 4.5 10.1667 5.47005 10.1667 6.66667C10.1667 7.86328 9.19662 8.83333 8 8.83333C6.80338 8.83333 5.83333 7.86328 5.83333 6.66667Z" fill="#666666"/>
<path fill-rule="evenodd" clip-rule="evenodd" d="M2.5157 5.91826C2.74479 3.13896 5.06732 1 7.85604 1H8.144C10.9327 1 13.2552 3.13896 13.4843 5.91826C13.6077 7.41466 13.1455 8.90052 12.195 10.0629L8.99964 13.9707C8.483 14.6026 7.51704 14.6026 7.00039 13.9707L3.80502 10.0629C2.85458 8.90052 2.39235 7.41466 2.5157 5.91826ZM8 3.5C6.2511 3.5 4.83333 4.91777 4.83333 6.66667C4.83333 8.41557 6.2511 9.83333 8 9.83333C9.7489 9.83333 11.1667 8.41557 11.1667 6.66667C11.1667 4.91777 9.7489 3.5 8 3.5Z" fill="#666666"/>
</svg>
