<svg width="16" height="16" viewBox="0 0 16 16" fill="none" xmlns="http://www.w3.org/2000/svg">
<path d="M3.33344 6.57368C4.61104 9.35627 6.88438 11.5686 9.71075 12.768L10.1638 12.9698C11.2003 13.4316 12.4189 13.0808 13.0511 12.1384L13.6431 11.256C13.8356 10.969 13.777 10.5826 13.5081 10.3657L11.5002 8.74581C11.2053 8.50788 10.7716 8.5633 10.546 8.86774L9.92485 9.70592C8.33097 8.91969 7.03694 7.62565 6.25071 6.03178L7.08888 5.41063C7.39332 5.18501 7.44874 4.75134 7.21081 4.45642L5.5909 2.44845C5.374 2.1796 4.98767 2.12096 4.70076 2.31334L3.81219 2.90913C2.86396 3.54494 2.51504 4.77351 2.98753 5.8128L3.33292 6.57255L3.33344 6.57368Z" fill="#666666"/>
</svg>
